<?xml version="1.0" standalone="no"?>
<!DOCTYPE svg PUBLIC "-//W3C//DTD SVG 20010904//EN"
 "http://www.w3.org/TR/2001/REC-SVG-20010904/DTD/svg10.dtd">
<svg version="1.0" xmlns="http://www.w3.org/2000/svg"
 width="287.000000pt" height="287.000000pt" viewBox="0 0 287.000000 287.000000"
 preserveAspectRatio="xMidYMid meet">
<metadata>
Created by potrace 1.11, written by Peter Selinger 2001-2013
</metadata>
<g transform="translate(0.000000,287.000000) scale(0.100000,-0.100000)"
fill="#000000" stroke="none">
<path d="M1390 2510 c-8 -4 -31 -11 -50 -14 -19 -3 -54 -12 -77 -20 -24 -8
-43 -13 -43 -11 0 2 -15 -1 -32 -6 -36 -10 -613 -159 -638 -164 -8 -2 -87 -22
-175 -45 -88 -23 -176 -46 -195 -51 -19 -4 -68 -16 -107 -26 l-73 -18 0 -718
0 -717 22 -10 c21 -8 205 -53 268 -66 14 -2 32 -7 40 -10 8 -3 24 -8 35 -10
11 -2 47 -11 80 -19 33 -9 69 -17 80 -20 11 -2 83 -21 160 -40 77 -20 151 -38
165 -41 14 -3 34 -8 45 -11 11 -4 27 -8 35 -9 8 -2 33 -8 55 -14 22 -6 56 -16
75 -20 93 -24 167 -42 190 -46 14 -3 34 -8 45 -11 11 -4 22 -8 25 -8 134 -30
106 -32 310 20 80 20 152 38 160 40 8 2 255 64 547 137 l533 133 0 717 c0 394
-3 719 -8 722 -4 2 -140 38 -302 80 -162 41 -329 84 -370 95 -366 96 -721 184
-750 187 -20 1 -42 -1 -50 -6z"/>
</g>
</svg>
